<svg width="492" height="492" viewBox="0 0 492 492" fill="none" xmlns="http://www.w3.org/2000/svg">
<path d="M182.08 123.685L182.04 123.658C181.068 123.003 179.876 122.759 178.724 122.977C177.573 123.195 176.554 123.859 175.888 124.824L160.188 147.635C159.857 148.116 159.624 148.658 159.502 149.23C159.38 149.801 159.372 150.391 159.478 150.966C159.584 151.54 159.803 152.088 160.121 152.578C160.439 153.068 160.851 153.491 161.332 153.822L161.371 153.85C162.344 154.504 163.535 154.748 164.687 154.53C165.838 154.311 166.857 153.648 167.523 152.683L183.223 129.872C183.554 129.391 183.787 128.849 183.909 128.277C184.031 127.706 184.039 127.116 183.933 126.541C183.827 125.966 183.608 125.418 183.29 124.928C182.972 124.438 182.56 124.015 182.079 123.684L182.08 123.685Z" fill="black"/>
<path d="M233.532 52.521C233.132 51.4171 232.312 50.5158 231.251 50.013C230.19 49.5102 228.974 49.4466 227.866 49.836L201.755 59.049C200.643 59.4419 199.732 60.2603 199.223 61.3245C198.714 62.3886 198.648 63.6114 199.04 64.724C199.04 64.736 199.049 64.749 199.053 64.76C199.453 65.8639 200.273 66.7653 201.334 67.2682C202.395 67.7712 203.611 67.8351 204.719 67.446L230.83 58.233C231.942 57.8392 232.852 57.0207 233.361 55.9568C233.87 54.8929 233.936 53.6706 233.545 52.558C233.54 52.545 233.536 52.533 233.532 52.521Z" fill="black"/>
<path d="M298.359 114C297.909 113.627 297.39 113.347 296.83 113.176C296.271 113.006 295.684 112.949 295.102 113.008L267.544 115.694C266.962 115.75 266.397 115.92 265.881 116.195C265.365 116.469 264.908 116.843 264.537 117.294C264.165 117.746 263.886 118.266 263.716 118.825C263.546 119.384 263.487 119.971 263.544 120.553C263.544 120.573 263.544 120.593 263.544 120.613C263.67 121.778 264.25 122.845 265.159 123.584C266.068 124.323 267.232 124.672 268.398 124.557L295.956 121.871C297.124 121.756 298.2 121.184 298.949 120.28C299.698 119.376 300.06 118.212 299.956 117.043V117.004C299.902 116.423 299.733 115.858 299.459 115.342C299.184 114.826 298.811 114.37 298.359 114V114Z" fill="black"/>
<path d="M153.502 69.214C156.172 69.214 158.336 67.0497 158.336 64.38C158.336 61.7102 156.172 59.546 153.502 59.546C150.832 59.546 148.668 61.7102 148.668 64.38C148.668 67.0497 150.832 69.214 153.502 69.214Z" fill="black"/>
<path d="M354.766 68.431C354.765 66.8161 354.286 65.2375 353.388 63.895C352.491 62.5525 351.215 61.5064 349.723 60.8888C348.231 60.2711 346.589 60.1099 345.005 60.4253C343.421 60.7407 341.966 61.5187 340.825 62.6608C339.683 63.803 338.906 65.258 338.591 66.842C338.276 68.426 338.438 70.0677 339.056 71.5597C339.674 73.0517 340.721 74.3268 342.064 75.224C343.406 76.1212 344.985 76.6 346.6 76.6C348.766 76.5976 350.842 75.7361 352.373 74.2046C353.904 72.673 354.764 70.5966 354.766 68.431V68.431Z" fill="black"/>
<path d="M50.877 184.5C49.7961 184.5 48.7395 184.821 47.8408 185.421C46.9421 186.022 46.2416 186.875 45.828 187.874C45.4144 188.872 45.3061 189.971 45.517 191.031C45.7279 192.091 46.2484 193.065 47.0127 193.829C47.777 194.594 48.7507 195.114 49.8108 195.325C50.8709 195.536 51.9698 195.428 52.9684 195.014C53.967 194.6 54.8205 193.9 55.421 193.001C56.0215 192.102 56.342 191.046 56.342 189.965C56.3402 188.516 55.7638 187.127 54.7393 186.103C53.7148 185.078 52.3258 184.502 50.877 184.5V184.5Z" fill="black"/>
<path d="M122.08 107.921C121.783 106.78 121.044 105.803 120.027 105.206C119.009 104.609 117.797 104.44 116.655 104.737L89.855 111.709C88.7186 112.005 87.7453 112.738 87.1472 113.749C86.5491 114.759 86.3747 115.965 86.662 117.104L86.672 117.142C86.9694 118.284 87.708 119.26 88.7252 119.857C89.7425 120.455 90.9553 120.624 92.097 120.327L118.897 113.355C120.034 113.057 121.008 112.322 121.606 111.31C122.204 110.297 122.377 109.09 122.088 107.95L122.08 107.921Z" fill="black"/>
<path d="M377.6 130.015L377.577 130.042C376.806 130.935 376.422 132.098 376.508 133.275C376.594 134.451 377.144 135.546 378.037 136.317L398.998 154.409C399.44 154.791 399.953 155.082 400.508 155.266C401.063 155.449 401.648 155.522 402.231 155.479C402.814 155.436 403.382 155.279 403.904 155.017C404.426 154.754 404.891 154.391 405.273 153.949C405.283 153.936 405.295 153.922 405.307 153.909C406.062 153.013 406.434 151.856 406.343 150.688C406.251 149.52 405.703 148.435 404.817 147.668L383.857 129.576C382.967 128.809 381.81 128.426 380.638 128.508C379.466 128.59 378.374 129.132 377.6 130.015V130.015Z" fill="black"/>
<path d="M437.206 266.121V220.681C437.206 216.904 435.706 213.281 433.035 210.61C430.364 207.939 426.741 206.439 422.964 206.439C419.187 206.439 415.564 207.939 412.893 210.61C410.222 213.281 408.722 216.904 408.722 220.681V356.39C408.722 363.088 406.061 369.512 401.325 374.248C396.589 378.984 390.165 381.645 383.467 381.645C376.769 381.645 370.345 378.984 365.609 374.248C360.873 369.512 358.212 363.088 358.212 356.39V284.99C358.219 282.594 357.679 280.228 356.632 278.073C355.584 275.918 354.058 274.031 352.169 272.556C350.281 271.081 348.08 270.058 345.735 269.565C343.39 269.071 340.964 269.121 338.641 269.709C333.057 291.524 319.954 310.668 301.639 323.769C283.325 336.871 260.974 343.088 238.525 341.326C216.076 339.564 194.969 329.936 178.922 314.139C162.876 298.341 152.919 277.387 150.807 254.968C146.962 256.645 142.759 257.339 138.579 256.987C134.399 256.635 130.372 255.248 126.861 252.952C123.35 250.656 120.466 247.522 118.469 243.832C116.471 240.143 115.423 236.015 115.419 231.82V194.35C115.419 190.304 113.812 186.424 110.951 183.563C108.09 180.702 104.21 179.095 100.164 179.095C96.1181 179.095 92.238 180.702 89.3771 183.563C86.5162 186.424 84.909 190.304 84.909 194.35V274.357C84.909 280.518 82.4616 286.427 78.1051 290.783C73.7486 295.14 67.84 297.587 61.679 297.587C55.518 297.587 49.6094 295.14 45.2529 290.783C40.8965 286.427 38.449 280.518 38.449 274.357V244.108C38.4496 241.843 37.8743 239.615 36.7772 237.634C35.6801 235.653 34.0973 233.983 32.1775 232.781C30.2577 231.58 28.0639 230.886 25.8024 230.766C23.5408 230.645 21.2857 231.102 19.249 232.092C18.973 236.704 18.816 241.34 18.816 246C18.8169 290.933 32.1415 334.856 57.1051 372.216C82.0686 409.576 117.55 438.695 159.062 455.89C200.575 473.085 246.253 477.584 290.323 468.819C334.392 460.054 374.873 438.417 406.646 406.646C438.423 375.038 460.065 334.682 468.812 290.724C465.067 291.679 461.153 291.765 457.369 290.975C453.586 290.185 450.033 288.54 446.983 286.166C443.933 283.792 441.466 280.752 439.772 277.278C438.077 273.804 437.199 269.989 437.206 266.124V266.121ZM90.719 374.059C90.2027 374.465 89.6115 374.765 88.9792 374.942C88.3469 375.119 87.6859 375.17 87.0339 375.092C86.3819 375.013 85.7518 374.807 85.1794 374.486C84.607 374.164 84.1036 373.732 83.698 373.216C81.298 370.159 78.944 366.984 76.709 363.781C76.3266 363.243 76.0545 362.634 75.9084 361.99C75.7624 361.347 75.7453 360.68 75.8582 360.03C75.9711 359.379 76.2117 358.758 76.566 358.201C76.9204 357.644 77.3816 357.162 77.923 356.784C78.4644 356.407 79.0752 356.14 79.7203 355.999C80.3654 355.859 81.0319 355.847 81.6814 355.966C82.3309 356.084 82.9505 356.33 83.5044 356.689C84.0584 357.048 84.5358 357.513 84.909 358.058C87.038 361.107 89.276 364.128 91.563 367.039C92.3819 368.082 92.753 369.407 92.5947 370.724C92.4365 372.04 91.7618 373.24 90.719 374.059V374.059ZM222.868 446.041C222.777 446.691 222.559 447.318 222.227 447.884C221.894 448.45 221.453 448.945 220.928 449.34C220.404 449.735 219.807 450.024 219.171 450.188C218.535 450.352 217.873 450.39 217.223 450.298C174.372 444.264 134.516 424.871 103.323 394.878C102.384 393.956 101.846 392.701 101.826 391.386C101.806 390.07 102.306 388.8 103.217 387.85C104.127 386.9 105.375 386.347 106.691 386.312C108.006 386.276 109.282 386.761 110.243 387.66C139.919 416.201 177.84 434.656 218.611 440.4C219.923 440.584 221.109 441.282 221.907 442.34C222.705 443.397 223.051 444.729 222.868 446.041ZM287.522 448.1C273.858 450.895 259.947 452.302 246 452.3C244.674 452.3 243.402 451.773 242.464 450.836C241.527 449.898 241 448.626 241 447.3C241 445.974 241.527 444.702 242.464 443.764C243.402 442.827 244.674 442.3 246 442.3C259.272 442.301 272.51 440.961 285.513 438.3C286.813 438.034 288.165 438.294 289.272 439.025C290.379 439.755 291.151 440.896 291.418 442.195C291.684 443.495 291.423 444.847 290.693 445.955C289.962 447.062 288.822 447.834 287.522 448.1V448.1Z" fill="black"/>
<path d="M354.7 177.744C353.218 177.744 351.77 178.183 350.538 179.006C349.306 179.829 348.346 180.999 347.778 182.368C347.211 183.736 347.063 185.243 347.352 186.696C347.641 188.149 348.354 189.484 349.402 190.532C350.449 191.579 351.784 192.293 353.237 192.582C354.69 192.871 356.197 192.723 357.565 192.156C358.934 191.589 360.104 190.629 360.927 189.397C361.751 188.165 362.19 186.717 362.19 185.235C362.188 183.249 361.398 181.345 359.994 179.941C358.59 178.537 356.686 177.747 354.7 177.744V177.744Z" fill="black"/>
<path d="M246 18.812C190.026 18.8146 136.022 39.4788 94.3432 76.8424C52.6647 114.206 26.2447 165.639 20.149 221.281C23.5574 220.537 27.0892 220.568 30.4844 221.37C33.8795 222.172 37.0516 223.725 39.7669 225.916C42.4823 228.106 44.6719 230.877 46.1744 234.026C47.677 237.174 48.4542 240.619 48.449 244.108V274.357C48.449 277.866 49.8429 281.231 52.324 283.712C54.8051 286.193 58.1702 287.587 61.679 287.587C65.1878 287.587 68.5529 286.193 71.034 283.712C73.5151 281.231 74.909 277.866 74.909 274.357V194.35C74.909 187.652 77.5698 181.228 82.306 176.492C87.0422 171.756 93.4659 169.095 100.164 169.095C106.862 169.095 113.286 171.756 118.022 176.492C122.758 181.228 125.419 187.652 125.419 194.35V231.821C125.423 235.866 127.032 239.743 129.892 242.603C132.752 245.463 136.629 247.072 140.674 247.077C144.234 247.089 147.684 245.842 150.414 243.557C150.747 230.546 153.733 217.741 159.189 205.925C164.645 194.109 172.455 183.531 182.142 174.839C191.829 166.147 203.188 159.524 215.524 155.376C227.86 151.228 240.913 149.642 253.884 150.715C266.854 151.788 279.469 155.498 290.956 161.617C302.442 167.736 312.559 176.136 320.685 186.302C328.812 196.467 334.778 208.185 338.217 220.737C341.657 233.289 342.497 246.412 340.688 259.3C341.273 259.26 341.859 259.233 342.45 259.233C349.28 259.241 355.828 261.957 360.658 266.787C365.488 271.617 368.204 278.165 368.212 284.995V356.395C368.212 360.441 369.819 364.321 372.68 367.182C375.541 370.043 379.421 371.65 383.467 371.65C387.513 371.65 391.393 370.043 394.254 367.182C397.115 364.321 398.722 360.441 398.722 356.395V220.681C398.722 214.252 401.276 208.086 405.822 203.539C410.369 198.993 416.535 196.439 422.964 196.439C429.393 196.439 435.559 198.993 440.106 203.539C444.652 208.086 447.206 214.252 447.206 220.681V266.121C447.21 270.202 448.834 274.114 451.72 276.999C454.606 279.885 458.519 281.507 462.6 281.51C465.505 281.518 468.351 280.692 470.8 279.131C472.392 268.159 473.19 257.087 473.188 246C473.188 185.746 449.252 127.96 406.646 85.3541C364.04 42.7482 306.254 18.8123 246 18.812V18.812ZM50.877 205.426C47.8183 205.426 44.8283 204.519 42.2851 202.82C39.7419 201.12 37.7597 198.705 36.5892 195.879C35.4187 193.053 35.1124 189.944 35.7091 186.944C36.3059 183.944 37.7788 181.188 39.9416 179.026C42.1044 176.863 44.86 175.39 47.8599 174.793C50.8598 174.196 53.9693 174.503 56.7952 175.673C59.621 176.844 62.0363 178.826 63.7357 181.369C65.435 183.912 66.342 186.902 66.342 189.961C66.3372 194.061 64.7063 197.992 61.8071 200.891C58.9079 203.79 54.9771 205.421 50.877 205.426V205.426ZM121.416 123.033L94.616 130.005C93.42 130.317 92.1891 130.476 90.953 130.477C87.7677 130.468 84.6744 129.408 82.1532 127.461C79.6319 125.515 77.8237 122.79 77.009 119.711C77.003 119.692 76.998 119.673 76.993 119.654C76.515 117.818 76.4035 115.905 76.6648 114.026C76.9261 112.146 77.5551 110.336 78.5158 108.7C79.4766 107.064 80.7503 105.632 82.2641 104.488C83.778 103.344 85.5025 102.51 87.339 102.032L114.139 95.06C117.842 94.096 121.775 94.6403 125.077 96.5733C128.379 98.5064 130.779 101.67 131.751 105.371L131.762 105.411C132.722 109.12 132.172 113.058 130.233 116.361C128.293 119.665 125.122 122.064 121.416 123.033ZM138.668 64.38C138.668 61.446 139.538 58.578 141.168 56.1385C142.798 53.699 145.115 51.7977 147.826 50.675C150.536 49.5523 153.519 49.2587 156.397 49.8312C159.274 50.4037 161.917 51.8167 163.992 53.8915C166.066 55.9663 167.479 58.6096 168.051 61.4873C168.623 64.3649 168.329 67.3476 167.206 70.0581C166.083 72.7686 164.182 75.0853 161.742 76.715C159.302 78.3447 156.434 79.2144 153.5 79.214C149.567 79.2092 145.797 77.6448 143.017 74.8638C140.236 72.0829 138.672 68.3126 138.668 64.38V64.38ZM191.462 135.541L175.762 158.351C173.587 161.505 170.25 163.667 166.483 164.363C162.716 165.059 158.826 164.232 155.668 162.064L155.602 162.019C152.466 159.838 150.322 156.504 149.637 152.746C148.953 148.988 149.785 145.112 151.95 141.965L167.645 119.156C169.82 116.002 173.157 113.84 176.924 113.144C180.691 112.448 184.581 113.275 187.739 115.443L187.805 115.488C190.941 117.669 193.085 121.003 193.77 124.761C194.454 128.518 193.623 132.394 191.458 135.541H191.462ZM234.162 67.664L208.051 76.876C206.262 77.5077 204.365 77.7807 202.471 77.6794C200.576 77.5781 198.719 77.1045 197.008 76.2856C195.296 75.4668 193.762 74.3187 192.494 72.907C191.226 71.4952 190.249 69.8476 189.618 68.058L189.598 68C188.339 64.3903 188.562 60.4287 190.219 56.9833C191.875 53.5378 194.83 50.8893 198.435 49.618L224.546 40.406C228.16 39.1366 232.13 39.352 235.585 41.005C239.041 42.658 241.699 45.6136 242.979 49.224L242.998 49.281C244.252 52.8916 244.026 56.8517 242.369 60.2962C240.713 63.7407 237.76 66.3895 234.157 67.664H234.162ZM296.941 131.823L269.383 134.509C268.908 134.555 268.437 134.578 267.97 134.578C264.384 134.571 260.928 133.232 258.273 130.821C255.618 128.411 253.953 125.1 253.6 121.531C253.6 121.499 253.594 121.466 253.592 121.431C253.243 117.629 254.413 113.844 256.846 110.902C259.28 107.961 262.778 106.101 266.578 105.731L294.136 103.045C297.941 102.674 301.738 103.826 304.695 106.249C307.653 108.672 309.529 112.168 309.914 115.972L309.92 116.031C310.289 119.846 309.13 123.652 306.695 126.613C304.261 129.574 300.751 131.448 296.936 131.823H296.941ZM328.441 68.431C328.442 64.8379 329.508 61.3258 331.504 58.3386C333.501 55.3515 336.339 53.0236 339.659 51.6493C342.979 50.275 346.632 49.9161 350.155 50.6179C353.679 51.3198 356.916 53.0509 359.456 55.5923C361.996 58.1336 363.725 61.3712 364.425 64.8954C365.125 68.4196 364.764 72.0723 363.388 75.3914C362.012 78.7105 359.682 81.547 356.694 83.5421C353.706 85.5372 350.193 86.6014 346.6 86.6C341.783 86.5947 337.165 84.6787 333.76 81.2723C330.354 77.866 328.439 73.2477 328.435 68.431H328.441ZM354.708 202.731C351.249 202.731 347.867 201.706 344.99 199.784C342.114 197.862 339.872 195.13 338.548 191.934C337.224 188.738 336.877 185.221 337.552 181.828C338.227 178.435 339.893 175.319 342.339 172.872C344.785 170.426 347.901 168.76 351.294 168.085C354.687 167.41 358.204 167.757 361.4 169.08C364.596 170.404 367.328 172.646 369.25 175.522C371.172 178.399 372.198 181.781 372.198 185.24C372.191 189.878 370.345 194.323 367.065 197.601C363.784 200.879 359.338 202.722 354.7 202.726L354.708 202.731ZM412.849 160.482L412.794 160.545C411.559 161.969 410.055 163.136 408.368 163.979C406.682 164.822 404.846 165.324 402.965 165.457C402.604 165.483 402.242 165.496 401.884 165.496C398.423 165.501 395.078 164.253 392.465 161.984V161.984L371.5 143.887C368.605 141.388 366.819 137.843 366.533 134.03C366.247 130.216 367.485 126.445 369.975 123.542C369.985 123.529 369.997 123.516 370.008 123.503C372.514 120.605 376.067 118.82 379.887 118.539C383.708 118.257 387.484 119.503 390.387 122.003L411.346 140.1C414.242 142.607 416.026 146.159 416.307 149.979C416.587 153.799 415.342 157.574 412.843 160.477L412.849 160.482Z" fill="black"/>
</svg>
